<?xml version="1.0" encoding="UTF-8" standalone="no"?>
<!DOCTYPE svg PUBLIC "-//W3C//DTD SVG 1.1//EN" "http://www.w3.org/Graphics/SVG/1.1/DTD/svg11.dtd">
<svg version="1.1" xmlns="http://www.w3.org/2000/svg" xmlns:xlink="http://www.w3.org/1999/xlink" preserveAspectRatio="xMidYMid meet" viewBox="45.82208588957055 290.239263803681 49.055214723926376 62.40490797546016" width="24.69" height="32"><defs><path d="M69.2 305.18C66.33 305.18 64 307.51 64 310.38C64 313.25 66.33 315.58 69.2 315.58C72.08 315.58 74.4 313.25 74.4 310.38C74.4 307.51 72.08 305.18 69.2 305.18Z" id="c3jVPHeH2T"></path><path d="M69.2 291.24C65.68 291.24 62.82 294.1 62.82 297.62C62.82 301.14 65.68 304 69.2 304C72.73 304 75.58 301.14 75.58 297.62C75.58 294.1 72.73 291.24 69.2 291.24Z" id="b32ZUATfM9"></path><path d="M79.21 304.1C79.21 306.26 80.39 308.12 81.87 309.3C76.86 315.29 73.03 322.55 70.67 330.5C70.67 329.67 70.67 325.52 70.67 318.04L68.02 318.04C68.02 325.4 68.02 329.49 68.02 330.31C65.77 322.36 61.84 314.99 56.93 309.2C58.7 308.02 59.58 306.16 59.58 304C59.58 300.56 56.74 297.62 53.2 297.62C49.67 297.62 46.82 300.47 46.82 304C46.82 307.53 49.67 310.38 53.2 310.38C53.4 310.38 53.79 310.38 53.99 310.38C62.82 320.2 68.22 334.82 68.02 349.64C68.29 349.64 70.41 349.64 70.67 349.64C70.48 334.82 75.88 320.2 84.71 310.38C84.91 310.38 85.3 310.38 85.5 310.38C88.93 310.38 91.88 307.53 91.88 304C91.68 300.56 89.03 297.72 85.6 297.72C82.16 297.72 79.21 300.56 79.21 304.1Z" id="b1OSjjHxbC"></path></defs><g><g><use xlink:href="#c3jVPHeH2T" opacity="1" fill="#555555" fill-opacity="1"></use><g><use xlink:href="#c3jVPHeH2T" opacity="1" fill-opacity="0" stroke="#000000" stroke-width="1" stroke-opacity="0"></use></g></g><g><use xlink:href="#b32ZUATfM9" opacity="1" fill="#555555" fill-opacity="1"></use><g><use xlink:href="#b32ZUATfM9" opacity="1" fill-opacity="0" stroke="#000000" stroke-width="1" stroke-opacity="0"></use></g></g><g><use xlink:href="#b1OSjjHxbC" opacity="1" fill="#555555" fill-opacity="1"></use><g><use xlink:href="#b1OSjjHxbC" opacity="1" fill-opacity="0" stroke="#000000" stroke-width="1" stroke-opacity="0"></use></g></g></g></svg>